<svg width="46" height="45" viewBox="0 0 46 45" fill="none" xmlns="http://www.w3.org/2000/svg">
<g clip-path="url(#clip0_221_1452)">
<path d="M23 0C10.2976 0 0 10.0737 0 22.5C0 33.0516 7.42624 41.9058 17.4441 44.3376V29.376H12.7015V22.5H17.4441V19.5372C17.4441 11.8791 20.987 8.3295 28.6727 8.3295C30.13 8.3295 32.6444 8.6094 33.6729 8.8884V15.1209C33.1301 15.0651 32.1871 15.0372 31.016 15.0372C27.2449 15.0372 25.7876 16.4349 25.7876 20.0682V22.5H33.3003L32.0096 29.376H25.7876V44.8353C37.1763 43.4898 46.0009 34.0038 46.0009 22.5C46 10.0737 35.7024 0 23 0Z" fill="#54281A"/>
</g>
<defs>
<clipPath id="clip0_221_1452">
<rect width="46" height="45" fill="white"/>
</clipPath>
</defs>
</svg>
