<svg width="46" height="46" viewBox="0 0 46 46" fill="none" xmlns="http://www.w3.org/2000/svg">
<path d="M0 46L3.23341 34.1876C1.23816 30.7299 0.18975 26.8103 0.191666 22.7911C0.197416 10.2254 10.4228 0 22.9865 0C29.0834 0.00191667 34.8066 2.37667 39.1114 6.68533C43.4143 10.994 45.7833 16.721 45.7814 22.8122C45.7757 35.3798 35.5503 45.6052 22.9865 45.6052C19.1724 45.6033 15.4138 44.6468 12.0846 42.8298L0 46ZM12.6442 38.7033C15.8565 40.6103 18.9232 41.7527 22.9789 41.7546C33.4208 41.7546 41.927 33.2561 41.9327 22.8083C41.9366 12.3395 33.4707 3.8525 22.9942 3.84867C12.5446 3.84867 4.04416 12.3472 4.04032 22.793C4.03841 27.0576 5.28807 30.2507 7.38682 33.5915L5.47207 40.5835L12.6442 38.7033ZM34.4693 28.2306C34.3274 27.9929 33.9479 27.8511 33.3768 27.5655C32.8075 27.2799 30.0073 25.9018 29.484 25.7121C28.9627 25.5223 28.5832 25.4265 28.2018 25.9977C27.8223 26.5669 26.7298 27.8511 26.3982 28.2306C26.0666 28.6101 25.7331 28.658 25.1639 28.3724C24.5946 28.0868 22.7584 27.4869 20.583 25.5453C18.8906 24.035 17.7464 22.1701 17.4148 21.5989C17.0832 21.0297 17.3803 20.7211 17.664 20.4374C17.9208 20.1825 18.2332 19.7723 18.5188 19.4388C18.8082 19.1092 18.9021 18.8715 19.0938 18.4901C19.2835 18.1106 19.1896 17.7771 19.0459 17.4915C18.9021 17.2078 17.7636 14.4037 17.2902 13.2633C16.8264 12.1536 16.3568 12.3031 16.008 12.2858L14.9155 12.2667C14.536 12.2667 13.9188 12.4085 13.3975 12.9797C12.8761 13.5508 11.4041 14.927 11.4041 17.7311C11.4041 20.5352 13.4454 23.2434 13.7291 23.6229C14.0146 24.0024 17.7445 29.7563 23.458 32.223C24.8169 32.8095 25.8788 33.1602 26.7049 33.4228C28.0695 33.856 29.3115 33.7947 30.2929 33.649C31.3873 33.4861 33.6623 32.2709 34.1377 30.9407C34.613 29.6087 34.613 28.4682 34.4693 28.2306Z" fill="#54281A"/>
</svg>
